<svg id="Layer_1" data-name="Layer 1" xmlns="http://www.w3.org/2000/svg" viewBox="0 0 100 100"><defs><style>.cls-1{fill:#000000;}</style></defs><title>B</title><polygon class="cls-1" points="30 50 20 50 0 0 10 0 30 50"/><polygon class="cls-1" points="30 50 20 50 0 0 10 0 30 50"/><polygon class="cls-1" points="50 50 40 50 20 0 30 0 50 50"/><polygon class="cls-1" points="70 50 60 50 40 0 50 0 70 50"/><polygon class="cls-1" points="90 50 80 50 60 0 70 0 90 50"/><polygon class="cls-1" points="110 50 100 50 80 0 90 0 110 50"/><polygon class="cls-1" points="70 100 80 100 100 50 90 50 70 100"/><polygon class="cls-1" points="70 100 80 100 100 50 90 50 70 100"/><polygon class="cls-1" points="50 100 60 100 80 50 70 50 50 100"/><polygon class="cls-1" points="30 100 40 100 60 50 50 50 30 100"/><polygon class="cls-1" points="10 100 20 100 40 50 30 50 10 100"/><polygon class="cls-1" points="-10 100 0 100 20 50 10 50 -10 100"/></svg>