<svg id="Layer_1" data-name="Layer 1" xmlns="http://www.w3.org/2000/svg" viewBox="0 0 100 100"><defs><style>.cls-1{fill:#231f20;}</style></defs><title>M</title><rect class="cls-1" x="10" width="10" height="10"/><rect class="cls-1" x="30" width="10" height="10"/><rect class="cls-1" x="50" width="10" height="10"/><rect class="cls-1" x="70" width="10" height="10"/><rect class="cls-1" x="90" width="10" height="10"/><rect class="cls-1" x="10" y="40" width="10" height="10"/><rect class="cls-1" x="30" y="40" width="10" height="10"/><rect class="cls-1" x="50" y="40" width="10" height="10"/><rect class="cls-1" x="70" y="40" width="10" height="10"/><rect class="cls-1" x="90" y="40" width="10" height="10"/><rect class="cls-1" x="10" y="80" width="10" height="10"/><rect class="cls-1" x="30" y="80" width="10" height="10"/><rect class="cls-1" x="50" y="80" width="10" height="10"/><rect class="cls-1" x="70" y="80" width="10" height="10"/><rect class="cls-1" x="90" y="80" width="10" height="10"/><rect class="cls-1" y="20.05" width="10" height="10"/><rect class="cls-1" x="20" y="20.05" width="10" height="10"/><rect class="cls-1" x="40" y="20.05" width="10" height="10"/><rect class="cls-1" x="60" y="20.05" width="10" height="10"/><rect class="cls-1" x="80" y="20.05" width="10" height="10"/><rect class="cls-1" y="60" width="10" height="10"/><rect class="cls-1" x="20" y="60" width="10" height="10"/><rect class="cls-1" x="40" y="60" width="10" height="10"/><rect class="cls-1" x="60" y="60" width="10" height="10"/><rect class="cls-1" x="80" y="60" width="10" height="10"/></svg>