<svg id="Layer_1" data-name="Layer 1" xmlns="http://www.w3.org/2000/svg" viewBox="0 0 100 100"><defs><style>.cls-1{fill:#231f20;}</style></defs><title>N</title><rect class="cls-1" width="5" height="20"/><rect class="cls-1" x="10" width="5" height="20"/><rect class="cls-1" x="20" width="5" height="20"/><rect class="cls-1" x="30" width="5" height="20"/><rect class="cls-1" x="40" width="5" height="20"/><rect class="cls-1" x="50" width="5" height="20"/><rect class="cls-1" x="60" width="5" height="20"/><rect class="cls-1" x="70" width="5" height="20"/><rect class="cls-1" x="80" width="5" height="20"/><rect class="cls-1" x="90" width="5" height="20"/><rect class="cls-1" y="50" width="5" height="25"/><rect class="cls-1" x="10" y="50" width="5" height="25"/><rect class="cls-1" x="20" y="50" width="5" height="25"/><rect class="cls-1" x="30" y="50" width="5" height="25"/><rect class="cls-1" x="40" y="50" width="5" height="25"/><rect class="cls-1" x="50" y="50" width="5" height="25"/><rect class="cls-1" x="60" y="50" width="5" height="25"/><rect class="cls-1" x="70" y="50" width="5" height="25"/><rect class="cls-1" x="80" y="50" width="5" height="25"/><rect class="cls-1" x="90" y="50" width="5" height="25"/><rect class="cls-1" x="5" y="20" width="5" height="30"/><rect class="cls-1" x="15" y="20" width="5" height="30"/><rect class="cls-1" x="25" y="20" width="5" height="30"/><rect class="cls-1" x="35" y="20" width="5" height="30"/><rect class="cls-1" x="45" y="20" width="5" height="30"/><rect class="cls-1" x="55" y="20" width="5" height="30"/><rect class="cls-1" x="65" y="20" width="5" height="30"/><rect class="cls-1" x="75" y="20" width="5" height="30"/><rect class="cls-1" x="85" y="20" width="5" height="30"/><rect class="cls-1" x="95" y="20" width="5" height="30"/><rect class="cls-1" x="5" y="75" width="5" height="25"/><rect class="cls-1" x="15" y="75" width="5" height="25"/><rect class="cls-1" x="25" y="75" width="5" height="25"/><rect class="cls-1" x="35" y="75" width="5" height="25"/><rect class="cls-1" x="45" y="75" width="5" height="25"/><rect class="cls-1" x="55" y="75" width="5" height="25"/><rect class="cls-1" x="65" y="75" width="5" height="25"/><rect class="cls-1" x="75" y="75" width="5" height="25"/><rect class="cls-1" x="85" y="75" width="5" height="25"/><rect class="cls-1" x="95" y="75" width="5" height="25"/></svg>