<svg id="Layer_1" data-name="Layer 1" xmlns="http://www.w3.org/2000/svg" viewBox="0 0 100 100"><defs><style>.cls-1{fill:#000000;}</style></defs><title>O</title><rect class="cls-1" x="48" y="5" width="4" height="90"/><rect class="cls-1" x="48" y="5" width="4" height="90"/><rect class="cls-1" x="48" y="5" width="4" height="90" transform="translate(-15.33 22.94) rotate(-22.5)"/><rect class="cls-1" x="48" y="5" width="4" height="90" transform="translate(-15.33 22.94) rotate(-22.5)"/><rect class="cls-1" x="48" y="5" width="4" height="90" transform="translate(-20.71 50) rotate(-45)"/><rect class="cls-1" x="48" y="5" width="4" height="90" transform="translate(-20.71 50) rotate(-45)"/><rect class="cls-1" x="48" y="5" width="4" height="90" transform="translate(-15.33 77.06) rotate(-67.5)"/><rect class="cls-1" x="48" y="5" width="4" height="90" transform="translate(-15.33 77.06) rotate(-67.5)"/><rect class="cls-1" x="48" y="5" width="4" height="90" transform="translate(0 100) rotate(-90)"/><rect class="cls-1" x="48" y="5" width="4" height="90" transform="translate(0 100) rotate(-90)"/><rect class="cls-1" x="48" y="5" width="4" height="90" transform="translate(22.94 115.33) rotate(-112.5)"/><rect class="cls-1" x="48" y="5" width="4" height="90" transform="translate(22.94 115.33) rotate(-112.5)"/><rect class="cls-1" x="48" y="5" width="4" height="90" transform="translate(50 120.71) rotate(-135)"/><rect class="cls-1" x="48" y="5" width="4" height="90" transform="translate(50 120.71) rotate(-135)"/><rect class="cls-1" x="48" y="5" width="4" height="90" transform="translate(77.06 115.33) rotate(-157.5)"/><rect class="cls-1" x="48" y="5" width="4" height="90" transform="translate(77.06 115.33) rotate(-157.5)"/></svg>