<svg id="Layer_1" data-name="Layer 1" xmlns="http://www.w3.org/2000/svg" xmlns:xlink="http://www.w3.org/1999/xlink" viewBox="0 0 100 100"><defs><style>.cls-1{fill:none;}.cls-2{fill:#000000;}.cls-3{clip-path:url(#clip-path);}</style><clipPath id="clip-path"><rect class="cls-1" x="120" width="100" height="100"/></clipPath></defs><title>P</title><rect class="cls-2" x="49" y="5" width="2" height="90"/><rect class="cls-2" x="49" y="5" width="2" height="90" transform="translate(-8.79 10.72) rotate(-11.25)"/><rect class="cls-2" x="49" y="5" width="2" height="90" transform="translate(-15.33 22.94) rotate(-22.5)"/><rect class="cls-2" x="49" y="5" width="2" height="90" transform="translate(-19.35 36.21) rotate(-33.75)"/><rect class="cls-2" x="49" y="5" width="2" height="90" transform="translate(-20.71 50) rotate(-45)"/><rect class="cls-2" x="49" y="5" width="2" height="90" transform="translate(-19.35 63.79) rotate(-56.25)"/><rect class="cls-2" x="49" y="5" width="2" height="90" transform="translate(-15.33 77.06) rotate(-67.5)"/><rect class="cls-2" x="49" y="5" width="2" height="90" transform="translate(-8.79 89.28) rotate(-78.75)"/><rect class="cls-2" x="49" y="5" width="2" height="90" transform="translate(0 100) rotate(-90)"/><rect class="cls-2" x="49" y="5" width="2" height="90" transform="translate(10.72 108.79) rotate(-101.25)"/><rect class="cls-2" x="49" y="5" width="2" height="90" transform="translate(22.94 115.33) rotate(-112.5)"/><rect class="cls-2" x="49" y="5" width="2" height="90" transform="translate(36.21 119.35) rotate(-123.75)"/><rect class="cls-2" x="49" y="5" width="2" height="90" transform="translate(50 120.71) rotate(-135)"/><rect class="cls-2" x="49" y="5" width="2" height="90" transform="translate(63.79 119.35) rotate(-146.25)"/><rect class="cls-2" x="49" y="5" width="2" height="90" transform="translate(77.06 115.33) rotate(-157.5)"/><rect class="cls-2" x="49" y="5" width="2" height="90" transform="translate(89.28 108.79) rotate(-168.75)"/><g class="cls-3"><polygon class="cls-2" points="129.75 25 119.75 25 99.75 0 109.75 0 129.75 25"/></g></svg>