<svg id="Layer_1" data-name="Layer 1" xmlns="http://www.w3.org/2000/svg" xmlns:xlink="http://www.w3.org/1999/xlink" viewBox="0 0 100 100"><defs><style>.cls-1{fill:none;}.cls-2{clip-path:url(#clip-path);}.cls-3{fill:#000000;}</style><clipPath id="clip-path"><rect class="cls-1" width="100" height="100"/></clipPath></defs><title>Q</title><g class="cls-2"><polygon class="cls-3" points="30 25 20 25 0 0 10 0 30 25"/><polygon class="cls-3" points="30 25 20 25 0 0 10 0 30 25"/><polygon class="cls-3" points="9.75 25 -0.25 25 -20.25 0 -10.25 0 9.75 25"/><polygon class="cls-3" points="50 25 40 25 20 0 30 0 50 25"/><polygon class="cls-3" points="70 25 60 25 40 0 50 0 70 25"/><polygon class="cls-3" points="90 25 80 25 60 0 70 0 90 25"/><polygon class="cls-3" points="110 25 100 25 80 0 90 0 110 25"/><polygon class="cls-3" points="70 50 80 50 100 25 90 25 70 50"/><polygon class="cls-3" points="70 50 80 50 100 25 90 25 70 50"/><polygon class="cls-3" points="90 50 100 50 120 25 110 25 90 50"/><polygon class="cls-3" points="50 50 60 50 80 25 70 25 50 50"/><polygon class="cls-3" points="30 50 40 50 60 25 50 25 30 50"/><polygon class="cls-3" points="10 50 20 50 40 25 30 25 10 50"/><polygon class="cls-3" points="-10 50 0 50 20 25 10 25 -10 50"/><polygon class="cls-3" points="30 75 20 75 0 50 10 50 30 75"/><polygon class="cls-3" points="30 75 20 75 0 50 10 50 30 75"/><polygon class="cls-3" points="10 75 0 75 -20 50 -10 50 10 75"/><polygon class="cls-3" points="50 75 40 75 20 50 30 50 50 75"/><polygon class="cls-3" points="70 75 60 75 40 50 50 50 70 75"/><polygon class="cls-3" points="90 75 80 75 60 50 70 50 90 75"/><polygon class="cls-3" points="110 75 100 75 80 50 90 50 110 75"/><polygon class="cls-3" points="70 100 80 100 100 75 90 75 70 100"/><polygon class="cls-3" points="70 100 80 100 100 75 90 75 70 100"/><polygon class="cls-3" points="90 100 100 100 120 75 110 75 90 100"/><polygon class="cls-3" points="50 100 60 100 80 75 70 75 50 100"/><polygon class="cls-3" points="30 100 40 100 60 75 50 75 30 100"/><polygon class="cls-3" points="10 100 20 100 40 75 30 75 10 100"/><polygon class="cls-3" points="-10 100 0 100 20 75 10 75 -10 100"/></g></svg>