<svg id="Layer_1" data-name="Layer 1" xmlns="http://www.w3.org/2000/svg" viewBox="0 0 100 100"><defs><style>.cls-1{fill:#000000;}</style></defs><title>S</title><path class="cls-1" d="M12.5,9.5a3,3,0,1,1-3,3,3,3,0,0,1,3-3m0-7a10,10,0,1,0,10,10,10,10,0,0,0-10-10Z"/><path class="cls-1" d="M12.5,9.5a3,3,0,1,1-3,3,3,3,0,0,1,3-3m0-7a10,10,0,1,0,10,10,10,10,0,0,0-10-10Z"/><path class="cls-1" d="M12.5,34.5a3,3,0,1,1-3,3,3,3,0,0,1,3-3m0-7a10,10,0,1,0,10,10,10,10,0,0,0-10-10Z"/><path class="cls-1" d="M12.5,59.5a3,3,0,1,1-3,3,3,3,0,0,1,3-3m0-7a10,10,0,1,0,10,10,10,10,0,0,0-10-10Z"/><path class="cls-1" d="M12.5,84.5a3,3,0,1,1-3,3,3,3,0,0,1,3-3m0-7a10,10,0,1,0,10,10,10,10,0,0,0-10-10Z"/><path class="cls-1" d="M37.5,9.5a3,3,0,1,1-3,3,3,3,0,0,1,3-3m0-7a10,10,0,1,0,10,10,10,10,0,0,0-10-10Z"/><path class="cls-1" d="M37.5,9.5a3,3,0,1,1-3,3,3,3,0,0,1,3-3m0-7a10,10,0,1,0,10,10,10,10,0,0,0-10-10Z"/><path class="cls-1" d="M37.5,34.5a3,3,0,1,1-3,3,3,3,0,0,1,3-3m0-7a10,10,0,1,0,10,10,10,10,0,0,0-10-10Z"/><path class="cls-1" d="M37.5,59.5a3,3,0,1,1-3,3,3,3,0,0,1,3-3m0-7a10,10,0,1,0,10,10,10,10,0,0,0-10-10Z"/><path class="cls-1" d="M37.5,84.5a3,3,0,1,1-3,3,3,3,0,0,1,3-3m0-7a10,10,0,1,0,10,10,10,10,0,0,0-10-10Z"/><path class="cls-1" d="M62.5,9.5a3,3,0,1,1-3,3,3,3,0,0,1,3-3m0-7a10,10,0,1,0,10,10,10,10,0,0,0-10-10Z"/><path class="cls-1" d="M62.5,9.5a3,3,0,1,1-3,3,3,3,0,0,1,3-3m0-7a10,10,0,1,0,10,10,10,10,0,0,0-10-10Z"/><path class="cls-1" d="M62.5,34.5a3,3,0,1,1-3,3,3,3,0,0,1,3-3m0-7a10,10,0,1,0,10,10,10,10,0,0,0-10-10Z"/><path class="cls-1" d="M62.5,59.5a3,3,0,1,1-3,3,3,3,0,0,1,3-3m0-7a10,10,0,1,0,10,10,10,10,0,0,0-10-10Z"/><path class="cls-1" d="M62.5,84.5a3,3,0,1,1-3,3,3,3,0,0,1,3-3m0-7a10,10,0,1,0,10,10,10,10,0,0,0-10-10Z"/><path class="cls-1" d="M87.5,9.5a3,3,0,1,1-3,3,3,3,0,0,1,3-3m0-7a10,10,0,1,0,10,10,10,10,0,0,0-10-10Z"/><path class="cls-1" d="M87.5,9.5a3,3,0,1,1-3,3,3,3,0,0,1,3-3m0-7a10,10,0,1,0,10,10,10,10,0,0,0-10-10Z"/><path class="cls-1" d="M87.5,34.5a3,3,0,1,1-3,3,3,3,0,0,1,3-3m0-7a10,10,0,1,0,10,10,10,10,0,0,0-10-10Z"/><path class="cls-1" d="M87.5,59.5a3,3,0,1,1-3,3,3,3,0,0,1,3-3m0-7a10,10,0,1,0,10,10,10,10,0,0,0-10-10Z"/><path class="cls-1" d="M87.5,84.5a3,3,0,1,1-3,3,3,3,0,0,1,3-3m0-7a10,10,0,1,0,10,10,10,10,0,0,0-10-10Z"/></svg>