<svg id="Layer_1" data-name="Layer 1" xmlns="http://www.w3.org/2000/svg" viewBox="0 0 800 800"><title>Artboard 1</title><path d="M188.72,541.89l20.35-20.35,94.39,94.38L283.1,636.28Zm18.5-287.78h29.61v61.08H207.22Zm0,185.07h29.61V528H207.22Zm5.55-43.49,101.79-9.25,1.85,22.2L214.63,417.9Zm23.14-141.58,94.38-94.38,20.36,20.36-94.38,94.38ZM460.77,138.45,458,168.06,300.68,154.18l2.78-29.62Zm-6.48,167.48,5.55,28.69L307.16,361.45l-5.55-28.68Zm5.55,333.12v29.62H301.61V639.05Zm94.39-384.94-20.36,20.36-94.39-94.38,20.36-20.36Zm0,185.07-20.36,20.36-94.39-94.39,20.36-20.35Zm0,135.1-94.39,94.39-20.36-20.36,94.39-94.39Zm19.43-320.17,28.68,2.78L570.88,622.4l-29.61-2.78Z"/></svg>