<svg id="Layer_1" data-name="Layer 1" xmlns="http://www.w3.org/2000/svg" viewBox="0 0 800 800"><defs><style>.cls-1{fill:none;stroke:#000;stroke-miterlimit:10;}</style></defs><title>Artboard 1</title><line class="cls-1" x1="399.5" y1="736.5" x2="399.5" y2="62.5"/><line class="cls-1" x1="458.02" y1="731.38" x2="340.98" y2="67.62"/><line class="cls-1" x1="514.76" y1="716.18" x2="284.24" y2="82.82"/><line class="cls-1" x1="568" y1="691.35" x2="231" y2="107.65"/><line class="cls-1" x1="616.12" y1="657.66" x2="182.88" y2="141.34"/><line class="cls-1" x1="657.66" y1="616.12" x2="141.34" y2="182.88"/><line class="cls-1" x1="691.35" y1="568" x2="107.65" y2="231"/><line class="cls-1" x1="716.18" y1="514.76" x2="82.82" y2="284.24"/><line class="cls-1" x1="731.38" y1="458.02" x2="67.62" y2="340.98"/><line class="cls-1" x1="736.5" y1="399.5" x2="62.5" y2="399.5"/><line class="cls-1" x1="731.38" y1="340.98" x2="67.62" y2="458.02"/><line class="cls-1" x1="716.18" y1="284.24" x2="82.82" y2="514.76"/><line class="cls-1" x1="691.35" y1="231" x2="107.65" y2="568"/><line class="cls-1" x1="657.66" y1="182.88" x2="141.34" y2="616.12"/><line class="cls-1" x1="616.12" y1="141.34" x2="182.88" y2="657.66"/><line class="cls-1" x1="568" y1="107.65" x2="231" y2="691.35"/><line class="cls-1" x1="514.76" y1="82.82" x2="284.24" y2="716.18"/><line class="cls-1" x1="458.02" y1="67.62" x2="340.98" y2="731.38"/></svg>